<svg xmlns="http://www.w3.org/2000/svg" xmlns:xlink="http://www.w3.org/1999/xlink" width="32px" height="32px" viewBox="0 0 32 32" version="1.1">
    <g id="safari-pinned-tab" stroke="none" stroke-width="1" fill="none" fill-rule="evenodd">
        <g id="Octopus_logo" transform="translate(3.000000, 0.000000)" fill="#FFFFFF" fill-rule="nonzero">
            <path d="M10.5221627,6.95971781 C9.46656814,6.95971781 8.60774678,7.8357879 8.60774678,8.91278402 C8.60774678,9.98961678 9.46656814,10.8658502 10.5221627,10.8658502 C11.5775971,10.8658502 12.4364185,9.98961678 12.4364185,8.91278402 C12.4364185,7.8357879 11.5775971,6.95971781 10.5221627,6.95971781 Z M23.6909169,16.3798809 L20.3320032,16.3798809 C20.117458,16.3798809 19.9176427,16.2722302 19.7962806,16.0918869 C19.6753987,15.9120336 19.6483404,15.6828473 19.7253525,15.4788175 L21.0936388,11.8494076 L21.1056469,11.8178802 C21.4516411,10.8495148 21.6261592,9.83541015 21.6261592,8.80039613 C21.6261592,3.94778782 17.7566599,0 13.0001601,0 C8.24398054,0 4.37384075,3.94778782 4.37384075,8.80039613 C4.37384075,9.40578785 4.43468194,10.0100361 4.55380257,10.5968054 C4.63161525,10.979545 4.73808732,11.3658783 4.8695363,11.744534 C4.87241825,11.7520483 4.87465977,11.7590726 4.87642096,11.7664235 L4.9707248,12.0217466 L4.98161217,12.0522939 L6.24534762,15.4835548 C6.32043845,15.6872578 6.29305992,15.9154641 6.17105733,16.0945006 C6.0501755,16.2727203 5.85052035,16.3797175 5.63677566,16.3797175 L2.30972351,16.3797175 C1.03574112,16.3797175 0,17.436621 0,18.7364326 C0,20.0352641 1.03574112,21.0926577 2.30972351,21.0926577 L5.84299526,21.0926577 C6.10637355,21.0926577 6.34365417,21.2547054 6.44388201,21.5033309 C6.54443008,21.7516297 6.4875916,22.0375001 6.30010469,22.2269913 L3.71531498,24.8377226 C3.28158138,25.2805766 3.04077837,25.8724099 3.04077837,26.5016514 C3.04077837,27.1312196 3.28158138,27.7227262 3.71787672,28.1680305 C4.15353162,28.6131715 4.73408461,28.8578765 5.35066199,28.8578765 C5.96771969,28.8578765 6.54667159,28.6138249 6.98120574,28.1706442 L9.58344726,25.5419438 C9.70753125,25.4161609 9.87292321,25.3501657 10.0403966,25.3501657 C10.1244535,25.3501657 10.209471,25.3665011 10.290646,25.4009689 C10.5324096,25.5040456 10.6897962,25.7451568 10.6897962,26.0125681 L10.6897962,29.6434482 C10.6897962,30.9426064 11.7263378,32 12.9995197,32 C14.2731818,32 15.3097235,30.9426064 15.3097235,29.6434482 L15.3097235,26.0158352 C15.3097235,25.7480972 15.4669499,25.5066592 15.7096742,25.4035826 C15.9514379,25.3001792 16.230827,25.3566998 16.416873,25.5452109 L19.0053452,28.1662336 C19.4434017,28.6131715 20.0236345,28.8578765 20.6402118,28.8578765 C21.2569493,28.8578765 21.8371821,28.6131715 22.2733173,28.1680305 C22.7097728,27.7225628 22.9497752,27.1313829 22.9497752,26.5016514 C22.9497752,25.8724099 22.708652,25.2799232 22.2717162,24.8336388 L19.6958926,22.2260111 C19.5090461,22.0365199 19.4530082,21.751303 19.5530759,21.5030042 C19.653624,21.2547054 19.8902642,21.0926577 20.1536425,21.0926577 L23.6905967,21.0926577 C24.9637786,21.0926577 26,20.0352641 26,18.7364326 C26.0001601,17.4367844 24.9640988,16.3798809 23.6909169,16.3798809 Z M14.5091816,10.2944362 C15.2552867,11.0553414 16.4700289,11.0556681 17.2158138,10.2944362 C17.5108935,9.99288387 17.9897777,9.99288387 18.2851777,10.2944362 C18.5802574,10.5953352 18.5802574,11.0836018 18.2851777,11.3846641 C17.6168853,12.066179 16.7399717,12.4069364 15.8625777,12.4069364 C14.9851838,12.4069364 14.1077899,12.066179 13.4399778,11.3846641 C13.3504772,11.2931856 13.2681815,11.1981133 13.1908492,11.0992838 C12.5622637,11.8962903 11.6001724,12.4084066 10.5221627,12.4084066 C8.63304391,12.4084066 7.09616356,10.8402036 7.09616356,8.91294737 C7.09616356,6.98569117 8.63304391,5.41748812 10.5221627,5.41748812 C11.6001724,5.41748812 12.5622637,5.92944107 13.1908492,6.72661096 C13.2681815,6.62778149 13.3506374,6.53254583 13.4399778,6.44123067 C14.7757621,5.07787415 16.9492333,5.07901763 18.2851777,6.44155738 C18.5802574,6.7426197 18.5802574,7.23088625 18.2851777,7.53194856 C17.9897777,7.83333759 17.5108935,7.83333759 17.2158138,7.53194856 C16.4695486,6.77055331 15.2549664,6.77088002 14.5091816,7.5314585 C13.7624361,8.29334382 13.7624361,9.53222422 14.5091816,10.2944362 Z" id="Shape"/>
        </g>
    </g>
</svg>