<svg id="visual" viewBox="0 0 900 100" width="900" height="100" xmlns="http://www.w3.org/2000/svg" xmlns:xlink="http://www.w3.org/1999/xlink" version="1.1"><rect x="0" y="0" width="900" height="100" fill="#F1F5F9"></rect><path d="M0 39L21.5 35.7C43 32.3 86 25.7 128.8 27.3C171.7 29 214.3 39 257.2 41.2C300 43.3 343 37.7 385.8 35C428.7 32.3 471.3 32.7 514.2 31.7C557 30.7 600 28.3 642.8 30.5C685.7 32.7 728.3 39.3 771.2 41.8C814 44.3 857 42.7 878.5 41.8L900 41L900 0L878.5 0C857 0 814 0 771.2 0C728.3 0 685.7 0 642.8 0C600 0 557 0 514.2 0C471.3 0 428.7 0 385.8 0C343 0 300 0 257.2 0C214.3 0 171.7 0 128.8 0C86 0 43 0 21.5 0L0 0Z" fill="#fff" stroke-linecap="round" stroke-linejoin="miter"></path></svg>